# AST/ASF file generated using VICON BodyLanguage
# -----------------------------------------------
:version 1.10
:name VICON
:units
  mass 1.0
  length 0.45
  angle deg
:documentation
   .ast/.asf automatically generated from VICON data using
   VICON BodyBuilder and BodyLanguage model FoxedUp or BRILLIANT.MOD
:root
   order TX TY TZ RX RY RZ
   axis XYZ
   position 0 0 0  
   orientation 0 0 0 
:bonedata
  begin
     id 1 
     name lhipjoint
     direction 0.606768 -0.715223 0.346827 
     length 2.41543 
     axis 0 0 0  XYZ
  end
  begin
     id 2 
     name lfemur
     direction 0.34202 -0.939693 0  
     length 7.2778  
     axis 0 0 20  XYZ
    dof rx ry rz
    limits (-160.0 20.0)
           (-70.0 70.0)
           (-60.0 70.0)
  end
  begin
     id 3 
     name ltibia
     direction 0.34202 -0.939693 0   
     length 7.61811   
     axis 0 0 20   XYZ
    dof rx
    limits (-10.0 170.0)
  end
  begin
     id 4 
     name lfoot
     direction 0.0823924 -0.226371 0.97055   
     length 2.33618   
     axis -90 7.62852e-016 20   XYZ
    dof rx rz
    limits (-45.0 90.0)
           (-70.0 20.0)
  end
  begin
     id 5 
     name ltoes
     direction 1.53554e-011 -4.21934e-011 1   
     length 1.17015   
     axis -90 7.62852e-016 20   XYZ
    dof rx
    limits (-90.0 20.0)
  end
  begin
     id 6 
     name rhipjoint
     direction -0.6077 -0.714582 0.346516   
     length 2.4176  
     axis 0 0 0  XYZ 
  end
  begin
     id 7 
     name rfemur
     direction -0.34202 -0.939693 0   
     length 7.28127   
     axis 0 0 -20   XYZ
    dof rx ry rz
    limits (-160.0 20.0)
           (-70.0 70.0)
           (-70.0 60.0)
  end
  begin
     id 8 
     name rtibia
     direction -0.34202 -0.939693 0   
     length 7.77648   
     axis 0 0 -20   XYZ
    dof rx
    limits (-10.0 170.0)
 end
 begin
     id 9 
     name rfoot
     direction -0.0809463 -0.222398 0.97159   
     length 2.37533  
     axis -90 -7.62852e-016 -20   XYZ
    dof rx rz
    limits (-45.0 90.0)
           (-20.0 70.0)
  end
  begin
     id 10 
     name rtoes
     direction -1.53568e-011 -4.21714e-011 1   
     length 1.18972   
     axis -90 -7.62852e-016 -20   XYZ
    dof rx
    limits (-90.0 20.0)
  end
  begin
     id 11 
     name lowerback
     direction 0.010968 0.991932 -0.126297   
     length 2.21698   
     axis 0 0 0   XYZ
    dof rx ry rz
    limits (-20.0 45.0)
           (-30.0 30.0)
           (-30.0 30.0)
  end
  begin
     id 12 
     name upperback
     direction 0.0167007 0.997503 -0.0686276   
     length 2.22371   
     axis 0 0 0   XYZ
    dof rx ry rz
    limits (-20.0 45.0)
           (-30.0 30.0)
           (-30.0 30.0)
  end
  begin
     id 13 
     name thorax
     direction 0.0111721 0.999885 -0.0102878   
     length 2.25242   
     axis 0 0 0   XYZ
    dof rx ry rz
    limits (-20.0 45.0)
           (-30.0 30.0)
           (-30.0 30.0)
  end
  begin
     id 14 
     name lowerneck
     direction -0.0120265 0.990428 0.137508   
     length 1.57674   
     axis 0 0 0   XYZ
    dof rx ry rz
    limits (-20.0 45.0)
           (-30.0 30.0)
           (-30.0 30.0)
  end
  begin
     id 15 
     name upperneck
     direction 0.0175669 0.998907 0.0433089   
     length 1.5618   
     axis 0 0 0   XYZ
    dof rx ry rz
    limits (-20.0 45.0)
           (-30.0 30.0)
           (-30.0 30.0)
  end
  begin
     id 16
     name head
     direction 0.00754609 0.99997 0.00185367  
     length 1.60579  
     axis 0 0 0   XYZ
    dof rx ry rz
    limits (-20.0 45.0)
           (-30.0 30.0)
           (-30.0 30.0)
  end
  begin
     id 17 
     name lclavicle
     direction 0.885866 0.429166 -0.176231  
     length 3.44967  
     axis 0 0 0   XYZ
    dof ry rz
    limits (-20.0 10.0)
           (0.0 20.0)
  end
  begin
     id 18 
     name lhumerus
     direction 1 -4.48973e-011 -1.90255e-027   
     length 5.20607   
     axis 180 -30 -90   XYZ
    dof rx ry rz
    limits (-60.0 90.0)
           (-90.0 90.0)
           (-90.0 90.0)
  end
  begin
     id 19
     name lradius
     direction 1 -4.48956e-011 9.87925e-027   
     length 3.39961   
     axis 180 -30 -90   XYZ
    dof rx
    limits (-10.0 170.0)
  end
  begin
     id 20
     name lwrist
     direction 1 -4.48985e-011 1.73247e-026   
     length 1.6998   
     axis -9.60847e-015 90 90   XYZ
    dof ry
    limits (-180.0 0.0)
 end
  begin
     id 21 
     name lhand
     direction 1 -4.48798e-011 3.46119e-026   
     length 0.519693   
     axis -2.21073e-014 90 90   XYZ
    dof rx rz
    limits (-90.0 90.0)
           (-45.0 45.0)
  end
  begin
     id 22 
     name lfingers
     direction 1 -4.48938e-011 6.92797e-026   
     length 0.41899   
     axis -4.42155e-014 90 90   XYZ
    dof rx
    limits (0.0 90.0)
  end
  begin
     id 23
     name lthumb
     direction 0.707107 -6.34952e-011 0.707107   
     length 0.601588   
     axis -90 45 6.0103e-014   XYZ
    dof rx rz
    limits (-45.0 45.0)
           (-45.0 45.0)
  end
  begin
     id 24 
     name rclavicle
     direction -0.866736 0.456792 -0.200276   
     length 3.45032  
     axis 0 0 0   XYZ 
    dof ry rz
    limits (-10.0 20.0)
           (-20.0 0.0)
  end
  begin
     id 25 
     name rhumerus
     direction -1 -4.4897e-011 8.65094e-028  
     length 5.32214   
     axis 180 30 90   XYZ
    dof rx ry rz
    limits (-90.0 60.0)
           (-90.0 90.0)
           (-90.0 90.0)
  end
  begin
     id 26 
     name rradius
     direction -1 -4.48987e-011 1.08427e-026   
     length 3.51208   
     axis 180 30 90   XYZ
    dof rx
    limits (-10.0 170.0)
  end
  begin
     id 27 
     name rwrist
     direction -1 -4.48961e-011 1.73222e-026   
     length 1.75604   
     axis -9.60847e-015 -90 -90   XYZ
    dof ry
    limits (-180.0 0.0)
  end
  begin
     id 28
     name rhand
     direction -1 -4.48895e-011 3.46314e-026   
     length 0.586681   
     axis -2.21073e-014 -90 -90   XYZ
    dof rx rz
    limits (-90.0 90.0)
           (-45.0 45.0)
  end
  begin
     id 29
     name rfingers
     direction -1 -4.48968e-011 6.92916e-026   
     length 0.472997   
     axis -4.42155e-014 -90 -90   XYZ
    dof rx
    limits (0.0 90.0)
  end
  begin
     id 30
     name rthumb
     direction -0.707107 -6.34848e-011 0.707107   
     length 0.679133   
     axis -90 -45 -6.0103e-014   XYZ
    dof rx rz
    limits (-45.0 45.0)
           (-45.0 45.0)
  end
:hierarchy
  begin
    root lhipjoint rhipjoint lowerback
    lhipjoint lfemur
    lfemur ltibia
    ltibia lfoot
    lfoot ltoes
    rhipjoint rfemur
    rfemur rtibia
    rtibia rfoot
    rfoot rtoes
    lowerback upperback
    upperback thorax
    thorax lowerneck lclavicle rclavicle
    lowerneck upperneck
    upperneck head
    lclavicle lhumerus
    lhumerus lradius
    lradius lwrist
    lwrist lhand lthumb
    lhand lfingers
    rclavicle rhumerus
    rhumerus rradius
    rradius rwrist
    rwrist rhand rthumb
    rhand rfingers
  end

#!OML:ASF H:\Dans Jumps\Project 1\Capture day 1\Session 1\subject.ASF
:FULLY-SPECIFIED
:DEGREES
1
root 0.323782 17.6159 -13.9946 7.44407 -0.657885 -1.19576
lowerback -2.49091 -0.52962 -0.417973
upperback 2.55057 -0.751718 1.70179
thorax 4.05307 -0.413577 1.94477
lowerneck -14.6833 0.32699 -2.16417
upperneck 29.003 0.721297 1.12639
head 11.9289 0.225604 0.897438
rclavicle 2.73329e-015 1.43125e-014
rhumerus -16.4332 -8.34569 -86.986
rradius 24.1143
rwrist 31.4268
rhand -19.5292 -26.2274
rfingers 7.12502
rthumb 6.79431 -56.0983
lclavicle 2.73329e-015 1.43125e-014
lhumerus -9.31123 -11.1787 91.3569
lradius 19.0379
lwrist 3.51053
lhand -27.4243 -6.40419
lfingers 7.12502
lthumb -0.829882 23.5739
rfemur -13.1363 -2.79172 19.2225
rtibia 19.762
rfoot -13.0959 -2.14588
rtoes 12.3414
lfemur -10.7989 6.79577 -18.0081
ltibia 16.1661
lfoot -9.59538 7.7588
ltoes -2.59089
2
root 0.325717 17.6179 -13.9863 7.4666 -0.634455 -1.19605
lowerback -2.58816 -0.529264 -0.404503
upperback 2.5004 -0.751266 1.69072
thorax 4.05576 -0.412479 1.92515
lowerneck -14.6164 0.317453 -2.14433
upperneck 29.0278 0.696042 1.14047
head 11.9254 0.218099 0.89552
rclavicle 1.2424e-015 8.54774e-015
rhumerus -16.3569 -8.19856 -87.0515
rradius 24.2659
rwrist 31.2488
rhand -19.6443 -26.0677
rfingers 7.12502
rthumb 6.68315 -55.9422
lclavicle 1.2424e-015 8.54774e-015
lhumerus -9.22013 -11.4044 91.3703
lradius 19.1111
lwrist 3.65421
lhand -27.3834 -6.33742
lfingers 7.12502
lthumb -0.790411 23.6409
rfemur -13.0682 -2.83171 19.2134
rtibia 19.6621
rfoot -13.1115 -2.12358
rtoes 12.4717
lfemur -10.7541 6.80512 -18.0125
ltibia 16.084
lfoot -9.60234 7.71545
ltoes -2.54002
3
root 0.327004 17.6198 -13.9786 7.48821 -0.612855 -1.18826
lowerback -2.66605 -0.543161 -0.417026
upperback 2.45428 -0.769239 1.69545
thorax 4.05298 -0.421568 1.93546
lowerneck -14.5926 0.313261 -2.189
upperneck 29.0552 0.689785 1.17992
head 11.931 0.215187 0.917199
rclavicle -2.23633e-015 7.95139e-015
rhumerus -16.2652 -8.01387 -87.1013
rradius 24.4153
rwrist 31.0547
rhand -19.6311 -26.0827
rfingers 7.12502
rthumb 6.69596 -55.9568
lclavicle -2.23633e-015 7.95139e-015
lhumerus -9.15211 -11.483 91.3986
lradius 19.2273
lwrist 3.70284
lhand -27.3895 -6.40064
lfingers 7.12502
lthumb -0.796239 23.5776
rfemur -13.0168 -2.85261 19.1994
rtibia 19.5817
rfoot -13.0957 -2.1237
rtoes 12.4765
lfemur -10.7127 6.81057 -18.0253
ltibia 16.0079
lfoot -9.60003 7.69554
ltoes -2.52513
4
root 0.328443 17.621 -13.9711 7.49684 -0.589367 -1.18961
lowerback -2.74794 -0.549494 -0.412412
upperback 2.42508 -0.777859 1.69318
thorax 4.06932 -0.425589 1.92941
lowerneck -14.5528 0.314897 -2.15874
upperneck 29.0622 0.68744 1.1643
head 11.9259 0.215398 0.905639
rclavicle -5.56597e-015 1.39149e-014
rhumerus -16.1714 -7.86721 -87.1603
rradius 24.5499
rwrist 30.8827
rhand -19.7866 -26.0007
rfingers 7.12502
rthumb 6.54581 -55.8796
lclavicle -5.56597e-015 1.39149e-014
lhumerus -9.10242 -11.6803 91.4344
lradius 19.3426
lwrist 3.87595
lhand -27.4065 -6.36778
lfingers 7.12502
lthumb -0.812671 23.6104
rfemur -12.9492 -2.85561 19.1939
rtibia 19.5
rfoot -13.1073 -2.12953
rtoes 12.6172
lfemur -10.6616 6.82374 -18.0265
ltibia 15.9359
lfoot -9.59431 7.65449
ltoes -2.49353
5
root 0.329854 17.6222 -13.9636 7.50711 -0.564939 -1.19102
lowerback -2.82724 -0.556309 -0.408304
upperback 2.39309 -0.787092 1.69191
thorax 4.08136 -0.429908 1.92466
lowerneck -14.5175 0.313724 -2.1498
upperneck 29.076 0.680742 1.16958
head 11.9241 0.213946 0.905046
rclavicle 4.96962e-016 6.95746e-015
rhumerus -16.079 -7.71882 -87.2146
rradius 24.6843
rwrist 30.7109
rhand -19.9417 -25.9009
rfingers 7.12502
rthumb 6.39607 -55.7843
lclavicle 4.96962e-016 6.95746e-015
lhumerus -9.04941 -11.851 91.4681
lradius 19.4547
lwrist 4.00865
lhand -27.4166 -6.38802
lfingers 7.12502
lthumb -0.822409 23.5901
rfemur -12.8878 -2.85951 19.1887
rtibia 19.4269
rfoot -13.1125 -2.14259
rtoes 12.699
lfemur -10.6165 6.82973 -18.0277
ltibia 15.8728
lfoot -9.59602 7.62383
ltoes -2.46765
6
root 0.331208 17.6231 -13.9566 7.51378 -0.542352 -1.19667
lowerback -2.90051 -0.561029 -0.400389
upperback 2.36595 -0.793781 1.69157
thorax 4.09486 -0.432902 1.91891
lowerneck -14.4837 0.312581 -2.14158
upperneck 29.0861 0.673689 1.17705
head 11.9213 0.21257 0.905319
rclavicle 8.79622e-015 -4.96962e-015
rhumerus -15.9839 -7.58525 -87.2652
rradius 24.8062
rwrist 30.5558
rhand -20.0862 -25.8196
rfingers 7.12502
rthumb 6.25664 -55.7072
lclavicle 8.79622e-015 -4.96962e-015
lhumerus -9.00809 -12.0281 91.5081
lradius 19.5714
lwrist 4.14371
lhand -27.4308 -6.40301
lfingers 7.12502
lthumb -0.836133 23.5751
rfemur -12.827 -2.85248 19.1884
rtibia 19.3588
rfoot -13.1162 -2.16544
rtoes 12.7631
lfemur -10.5742 6.834 -18.0239
ltibia 15.8205
lfoot -9.59917 7.59751
ltoes -2.44869
7
root 0.332546 17.6237 -13.9499 7.51625 -0.523193 -1.20543
lowerback -2.9667 -0.56284 -0.389341
upperback 2.34224 -0.796753 1.69127
thorax 4.10772 -0.433975 1.91173
lowerneck -14.4461 0.311132 -2.13266
upperneck 29.0944 0.665531 1.1858
head 11.9169 0.210964 0.905756
rclavicle 3.926e-015 1.07344e-014
rhumerus -15.8888 -7.467 -87.3123
rradius 24.9139
rwrist 30.4219
rhand -20.2514 -25.7289
rfingers 7.12502
rthumb 6.09716 -55.6212
lclavicle 3.926e-015 1.07344e-014
lhumerus -8.9801 -12.2175 91.5547
lradius 19.6884
lwrist 4.28479
lhand -27.4464 -6.41266
lfingers 7.12502
lthumb -0.851189 23.5654
rfemur -12.7668 -2.8386 19.1914
rtibia 19.2964
rfoot -13.1207 -2.19256
rtoes 12.8125
lfemur -10.5349 6.83612 -18.0164
ltibia 15.7813
lfoot -9.60573 7.57712
ltoes -2.43431
8
root 0.333863 17.624 -13.9437 7.51507 -0.507085 -1.21743
lowerback -3.02125 -0.562064 -0.376007
upperback 2.31936 -0.796388 1.69217
thorax 4.11471 -0.433317 1.90481
lowerneck -14.4047 0.308907 -2.12581
upperneck 29.103 0.656154 1.19656
head 11.9119 0.208844 0.907116
rclavicle -5.91384e-015 7.35503e-015
rhumerus -15.7971 -7.36122 -87.3534
rradius 25.0079
rwrist 30.3087
rhand -20.3502 -25.6972
rfingers 7.12502
rthumb 6.00174 -55.5922
lclavicle -5.91384e-015 7.35503e-015
lhumerus -8.96764 -12.4075 91.6102
lradius 19.8028
lwrist 4.42005
lhand -27.4617 -6.42562
lfingers 7.12502
lthumb -0.866015 23.5524
rfemur -12.7092 -2.82011 19.198
rtibia 19.2419
rfoot -13.1261 -2.22244
rtoes 12.8378
lfemur -10.5003 6.83805 -18.0055
ltibia 15.7568
lfoot -9.61594 7.56157
ltoes -2.42992
9
root 0.335183 17.6239 -13.938 7.50872 -0.495354 -1.22932
lowerback -3.06406 -0.558931 -0.363503
upperback 2.2986 -0.792829 1.69359
thorax 4.11714 -0.431095 1.89919
lowerneck -14.3595 0.305935 -2.12249
upperneck 29.1129 0.64613 1.20888
head 11.9066 0.206237 0.909565
rclavicle -1.63003e-014 -1.98785e-016
rhumerus -15.707 -7.26783 -87.3888
rradius 25.0877
rwrist 30.218
rhand -20.4096 -25.6937
rfingers 7.12502
rthumb 5.94439 -55.5903
lclavicle -1.63003e-014 -1.98785e-016
lhumerus -8.9697 -12.5958 91.6742
lradius 19.9163
lwrist 4.55779
lhand -27.4616 -6.40181
lfingers 7.12502
lthumb -0.865869 23.5762
rfemur -12.6532 -2.80238 19.2041
rtibia 19.1964
rfoot -13.135 -2.24723
rtoes 12.8518
lfemur -10.4694 6.8444 -17.9947
ltibia 15.7477
lfoot -9.63185 7.54698
ltoes -2.4273
